<svg width="200" height="40" viewBox="0 0 200 40" fill="none" xmlns="http://www.w3.org/2000/svg">
<path fill-rule="evenodd" clip-rule="evenodd" d="M69.149 40C54.8528 40 49 34.1901 49 19.9996C49 5.80831 54.8524 0 69.149 0H179.851C194.148 0 200 5.80871 200 19.9996C200 34.1905 194.148 40 179.851 40H69.149Z" fill="#171717"/>
<path fill-rule="evenodd" clip-rule="evenodd" d="M72.5965 22.4177C72.5965 20.3782 66.3642 21.3753 66.3642 16.9549C66.3642 14.5719 68.3695 13.4214 70.5309 13.4214C71.9464 13.4214 73.6267 13.8429 74.6739 14.8631L74.8161 15.0008L73.5851 16.9935L73.37 16.8015C72.6136 16.1218 71.6502 15.7233 70.6335 15.7233C69.9105 15.7233 69.0286 16.0819 69.0286 16.9286C69.0286 19.0816 75.2621 18.0631 75.2621 22.3141C75.2621 24.9902 72.8959 26.0803 70.5569 26.0803C69.1748 26.0803 66.8962 25.3883 66.0961 24.1567L66 24.0099L67.4444 22.1628L67.6359 22.3869C68.3003 23.1612 69.7753 23.7784 70.7875 23.7784C71.6234 23.7788 72.5965 23.4013 72.5965 22.4177ZM87.8376 17.3973C87.8604 17.6486 87.8555 17.9224 87.8555 18.1716V25.8217H85.3178V18.0684C85.3178 16.6703 84.4689 15.9046 83.0982 15.9046C82.0195 15.9046 80.9539 16.438 80.3144 17.318V25.8221H77.7779V13.6809H80.3144V14.8043C81.2757 13.9461 82.6375 13.474 83.8933 13.474C85.2986 13.474 86.7651 13.9856 87.4376 15.2636C88.4152 14.0925 89.922 13.474 91.4344 13.474C94.2557 13.474 95.3967 15.2315 95.3967 17.9389V25.8221H92.8589V18.5084C92.8589 16.9121 92.2939 15.9046 90.6132 15.9046C89.504 15.9046 88.4177 16.4265 87.8376 17.3973ZM104.786 24.7086C103.858 25.614 102.682 26.0026 101.335 26.0026C99.0334 26.0026 97.5531 24.4816 97.5531 22.1599C97.5531 19.4891 99.7247 18.2128 102.156 18.2128C102.988 18.2128 104.002 18.3583 104.783 18.7675C104.748 17.1041 104.451 15.7751 102.413 15.7751C101.197 15.7751 100.394 16.0436 99.345 16.6016L99.0904 16.7369L98.4036 14.6221L98.5645 14.5209C99.7247 13.7886 101.18 13.4218 102.541 13.4218C105.889 13.4218 107.221 15.1838 107.221 18.4307V25.8217H104.786V24.7086H104.786ZM112.709 14.595C113.396 13.8507 114.257 13.474 115.366 13.474C116.059 13.474 116.728 13.5353 117.304 13.9617L117.451 14.0711L116.568 16.4598L116.319 16.3109C115.781 15.9902 115.508 15.9046 114.878 15.9046C113.792 15.9046 113.185 16.4664 112.709 17.3772V25.8217H110.172V13.6809H112.709V14.595H112.709ZM121.173 13.6809H125.406V16.1115H121.173V20.9423C121.173 22.2454 121.437 23.5971 122.983 23.5971C123.603 23.5971 124.166 23.3722 124.658 22.9992L124.91 22.808L125.735 24.8739L125.6 24.9886C124.761 25.6934 123.572 26.0289 122.495 26.0289C119.464 26.0289 118.637 23.8405 118.637 21.1496V10.4447H121.173V13.6809ZM136.026 24.5428C135.008 25.5227 133.594 26.0812 132.191 26.0812C129.029 26.0812 127.691 23.8709 127.691 20.8654V13.6809H130.227V20.3991C130.227 22.3236 130.891 23.6497 132.96 23.6497C134.124 23.6497 135.299 22.9778 136.026 22.074V13.6813H138.563V25.8221H136.026V24.5428ZM144.334 14.713C145.323 13.8638 146.769 13.4214 148.015 13.4214C151.564 13.4214 153.593 16.1431 153.593 19.5697C153.593 23.2714 151.082 26.0803 147.349 26.0803C146.37 26.0803 145.239 25.9167 144.334 25.4565V31H141.798V13.6809H144.334V14.713H144.334ZM159.363 23.3898H167.252V25.8217H155.816V23.7916L155.888 23.7196C158.468 21.1603 163.843 16.072 163.843 12.2416C163.843 10.5931 162.804 9.5618 161.162 9.5618C159.565 9.5618 158.476 10.7338 158.194 12.2618L158.139 12.5574L155.942 11.6429L155.972 11.4521C156.417 8.70731 158.636 7 161.34 7C164.2 7 166.508 8.82575 166.508 11.8284C166.508 16.0675 162.442 20.5887 159.363 23.3898ZM176.976 21.2902H168.69V19.4998L176.237 7.20806H179.167L172.062 18.7304H176.976V13.6809H179.512V18.73H182V21.2902H179.512V25.8221H176.976V21.2902ZM104.786 22.3018V21.0443C104.086 20.5759 103.278 20.3839 102.438 20.3839C101.394 20.3839 100.218 20.826 100.218 22.0563C100.218 23.1764 101.027 23.6493 102.053 23.6493C103.227 23.6493 104.044 23.1583 104.786 22.3018ZM144.334 17.3007V22.8557C145.234 23.4412 146.094 23.6493 147.169 23.6493C149.516 23.6493 150.928 21.9518 150.928 19.6483C150.928 17.445 149.692 15.8532 147.426 15.8532C146.273 15.8537 145.077 16.4071 144.334 17.3007Z" fill="white"/>
<path fill-rule="evenodd" clip-rule="evenodd" d="M14.467 28.9446H31V38.1528C30.936 38.1795 30.8712 38.2079 30.8068 38.2342C27.9389 39.4367 24.3371 40 19.924 40C15.4728 40 11.8426 39.4395 8.96828 38.2038L8.84879 38.1536L14.467 28.9446ZM19.924 0C24.4348 0 28.0965 0.588063 30.9951 1.84643L30.9992 1.84723L19.924 20.0006C22.9931 14.9696 21.4053 8.40131 16.3769 5.33016C11.4995 2.35181 5.17568 3.75689 2 8.43617C2.00162 8.43293 2.00324 8.42846 2.00486 8.42481C4.79007 2.55809 10.5128 0 19.924 0Z" fill="#171717"/>
<path fill-rule="evenodd" clip-rule="evenodd" d="M31.8913 2C38.2407 4.67563 41 10.4054 41 20.0008C41 29.595 38.2407 35.3248 31.8921 38V28.8692H15L20.5754 20.0004L31.8913 2Z" fill="#4DB472"/>
<path fill-rule="evenodd" clip-rule="evenodd" d="M9.09951 38C2.75644 35.3325 0 29.6193 0 20.0517C0 15.3354 0.670607 11.5576 2.10898 8.61766C5.35122 3.99114 11.8051 2.6019 16.7834 5.54667C21.9155 8.5832 23.537 15.0774 20.4039 20.0517L9.09951 38Z" fill="#1993CB"/>
</svg>
